<?xml version="1.0" encoding="utf-8"?>
<!-- Generator: Adobe Illustrator 16.0.0, SVG Export Plug-In . SVG Version: 6.00 Build 0)  -->
<!DOCTYPE svg PUBLIC "-//W3C//DTD SVG 1.1//EN" "http://www.w3.org/Graphics/SVG/1.1/DTD/svg11.dtd">
<svg version="1.1" id="Layer_1" xmlns="http://www.w3.org/2000/svg" xmlns:xlink="http://www.w3.org/1999/xlink" x="0px" y="0px"
	 width="64px" height="64px" viewBox="0 0 64 64" enable-background="new 0 0 64 64" xml:space="preserve">
<g>
	<path fill="#FF8A80" d="M21.494,42.5c0.386,0.385,0.868,0.576,1.394,0.576c0.531,0,1.013-0.191,1.397-0.576l7.7-7.701l7.704,7.701
		c0.387,0.385,0.867,0.576,1.396,0.576s1.01-0.191,1.396-0.576c0.77-0.771,0.77-2.023,0-2.791l-7.701-7.703l7.701-7.701
		c0.77-0.77,0.77-2.02,0-2.791c-0.77-0.77-2.021-0.77-2.793,0l-7.704,7.701l-7.7-7.701c-0.77-0.77-2.021-0.77-2.791,0
		c-0.77,0.771-0.77,2.021,0,2.791l7.701,7.701l-7.701,7.703C20.724,40.477,20.724,41.729,21.494,42.5z"/>
	<path fill="#FF8A80" d="M19.859,59.186"/>
	<path fill="#FF8A80" d="M3.206,25.975"/>
	<g>
		<path fill="#FF8A80" d="M30.552,63.997c-1.406-0.023-2.82-0.137-4.236-0.346c-1.27-0.188-2.15-1.371-1.963-2.643
			c0.188-1.273,1.367-2.152,2.643-1.965c7.255,1.063,14.503-0.756,20.396-5.137c5.889-4.379,9.721-10.789,10.789-18.051
			c1.418-9.639-2.242-19.088-9.795-25.271c-0.994-0.816-1.139-2.283-0.324-3.277s2.281-1.141,3.277-0.326
			c8.695,7.125,13.084,18.449,11.449,29.553c-1.25,8.492-5.73,15.99-12.619,21.111C44.428,61.915,37.588,64.106,30.552,63.997z"/>
		<path fill="#FF8A80" d="M20.051,62.114c-0.329-0.004-0.663-0.08-0.978-0.232C7.841,56.436,0.724,44.86,0.945,32.391
			c0.021-1.283,1.08-2.307,2.365-2.285c0.001,0,0.001,0,0.003,0c1.286,0.021,2.311,1.082,2.288,2.367
			C5.412,43.135,11.5,53.034,21.105,57.69c1.158,0.561,1.643,1.953,1.079,3.111C21.776,61.641,20.928,62.127,20.051,62.114z"/>
		<path fill="#FF8A80" d="M3.208,28.305c-0.158,0-0.32-0.016-0.48-0.051c-1.259-0.264-2.064-1.498-1.801-2.758
			C4.03,10.723,17.253,0,32.371,0c2.387,0,4.793,0.271,7.153,0.81c1.254,0.284,2.039,1.532,1.754,2.786s-1.535,2.037-2.787,1.754
			c-2.021-0.459-4.08-0.692-6.12-0.692c-12.927,0-24.234,9.166-26.887,21.799C5.253,27.551,4.287,28.305,3.208,28.305z"/>
		<circle fill="#FF8A80" cx="44.828" cy="5.532" r="2.173"/>
	</g>
</g>
</svg>
